<?xml version="1.0" encoding="UTF-8" standalone="no"?>
<!-- Created with Inkscape (http://www.inkscape.org/) -->

<svg
   version="1.1"
   id="svg2"
   xml:space="preserve"
   width="393.56799"
   height="128.364"
   viewBox="0 0 393.56799 128.364"
   sodipodi:docname="system_identification_block_diagram.pdf"
   xmlns:inkscape="http://www.inkscape.org/namespaces/inkscape"
   xmlns:sodipodi="http://sodipodi.sourceforge.net/DTD/sodipodi-0.dtd"
   xmlns="http://www.w3.org/2000/svg"
   xmlns:svg="http://www.w3.org/2000/svg"><defs
     id="defs6" /><sodipodi:namedview
     id="namedview4"
     pagecolor="#ffffff"
     bordercolor="#666666"
     borderopacity="1.0"
     inkscape:pageshadow="2"
     inkscape:pageopacity="0.0"
     inkscape:pagecheckerboard="0" /><g
     id="g8"
     inkscape:groupmode="layer"
     inkscape:label="system_identification_block_diagram"
     transform="matrix(1.3333333,0,0,-1.3333333,0,128.364)"><g
       id="g10"
       transform="translate(19.183,80.477)"><g
         id="g12"><g
           id="g14"><g
             id="g16"><g
               id="g18"><path
                 d="m 58.18803,0 c 0,0.82533 -0.66908,1.49442 -1.49441,1.49442 -0.82535,0 -1.49442,-0.66909 -1.49442,-1.49442 0,-0.82533 0.66907,-1.49442 1.49442,-1.49442 0.82533,0 1.49441,0.66909 1.49441,1.49442 z"
                 style="fill:#000000;fill-opacity:1;fill-rule:nonzero;stroke:none"
                 id="path20" /></g><g
               id="g22"
               transform="translate(56.692)"><g
                 id="g24" /><g
                 id="g26"
                 transform="translate(-56.692)" /></g></g><g
             id="g28"><g
               id="g30"><path
                 d="M 101.00714,-12.45346 H 151.4015 V 12.45348 H 101.00714 Z"
                 style="fill:#b3b3ff;fill-opacity:1;fill-rule:nonzero;stroke:none"
                 id="path32" /></g><g
               id="g34"
               transform="translate(104.326,-2.49)"><g
                 id="g36"><g
                   id="g38"
                   transform="translate(-123.509,-77.987)"><text
                     transform="matrix(1,0,0,-1,123.509,77.987)"
                     style="font-variant:normal;font-weight:normal;font-size:9.9626px;font-family:CMR10;-inkscape-font-specification:CMR10;writing-mode:lr-tb;fill:#ffffff;fill-opacity:1;fill-rule:nonzero;stroke:none"
                     id="text42"><tspan
                       x="0 5.5352206 9.4375706 13.86495 19.400171 22.167782 26.595161 30.469616 33.237225 38.218525"
                       y="0"
                       sodipodi:role="line"
                       id="tspan40">prediction</tspan></text><g
                     id="g44"
                     transform="translate(123.509,77.987)" /></g></g><g
                 id="g46"
                 transform="translate(-104.326,2.49)" /></g></g><g
             id="g48"><g
               id="g50"><path
                 d="m 197.20946,0 c 0,0.82533 -0.66909,1.49442 -1.49442,1.49442 -0.82534,0 -1.49441,-0.66909 -1.49441,-1.49442 0,-0.82533 0.66907,-1.49442 1.49441,-1.49442 0.82533,0 1.49442,0.66909 1.49442,1.49442 z"
                 style="fill:#000000;fill-opacity:1;fill-rule:nonzero;stroke:none"
                 id="path52" /></g><g
               id="g54"
               transform="translate(195.712)"><g
                 id="g56" /><g
                 id="g58"
                 transform="translate(-195.712)" /></g></g><g
             id="g60"><g
               id="g62"><path
                 d="m 98.11514,-80.47841 h 56.17836 v 24.90694 H 98.11514 Z"
                 style="fill:#b3b3ff;fill-opacity:1;fill-rule:nonzero;stroke:none"
                 id="path64" /></g><g
               id="g66"
               transform="translate(101.434,-70.514)"><g
                 id="g68"><g
                   id="g70"
                   transform="translate(-120.617,-9.963)"><text
                     transform="matrix(1,0,0,-1,120.617,9.963)"
                     style="font-variant:normal;font-weight:normal;font-size:9.9626px;font-family:CMR10;-inkscape-font-specification:CMR10;writing-mode:lr-tb;fill:#ffffff;fill-opacity:1;fill-rule:nonzero;stroke:none"
                     id="text74"><tspan
                       x="0 7.4719501 13.007171 17.98847 23.523691 27.398146 32.379448 36.253902 39.021511 44.002811"
                       y="0"
                       sodipodi:role="line"
                       id="tspan72">Adaptation</tspan></text><g
                     id="g76"
                     transform="translate(120.617,9.963)" /></g></g><g
                 id="g78"
                 transform="translate(-101.434,70.514)" /></g></g><path
             d="m 0,0 h 55.1992 m 2.98883,0 h 42.52022 m 50.99215,0 h 42.52023 m 2.98883,0 h 52.98747"
             style="fill:none;stroke:#000000;stroke-width:0.59776;stroke-linecap:butt;stroke-linejoin:miter;stroke-miterlimit:10;stroke-dasharray:none;stroke-opacity:1"
             id="path80" /><g
             id="g82"
             transform="translate(250.19693)"><g
               id="g84"><path
                 d="m 0.91655,0 c -1.14568,0.22913 -2.29138,0.68741 -3.66621,1.4894 1.37483,-1.03113 1.37483,-1.94767 0,-2.9788 1.37483,0.80199 2.52053,1.26027 3.66621,1.4894 z"
                 style="fill:#000000;fill-opacity:1;fill-rule:nonzero;stroke:#000000;stroke-width:0.59776;stroke-linecap:butt;stroke-linejoin:round;stroke-miterlimit:10;stroke-dasharray:none;stroke-opacity:1"
                 id="path86" /></g></g><g
             id="g88"><g
               id="g90"
               transform="translate(-15.862,5.557)"><g
                 id="g92"><g
                   id="g94"
                   transform="translate(-3.321,-86.034)"><text
                     transform="matrix(1,0,0,-1,3.321,86.034)"
                     style="font-variant:normal;font-weight:normal;font-size:9.9626px;font-family:CMR10;-inkscape-font-specification:CMR10;writing-mode:lr-tb;fill:#000000;fill-opacity:1;fill-rule:nonzero;stroke:none"
                     id="text98"><tspan
                       x="0 4.9812999 8.9105492 12.839799 17.267178 24.459179 29.9944 33.896751 36.66436 41.09174"
                       y="0"
                       sodipodi:role="line"
                       id="tspan96">assetprice</tspan></text><g
                     id="g100"
                     transform="translate(3.321,86.034)" /></g></g><g
                 id="g102"
                 transform="translate(15.862,-5.557)" /></g></g><g
             id="g104"><g
               id="g106"
               transform="translate(204.539,5.557)"><g
                 id="g108"><g
                   id="g110"
                   transform="translate(-223.722,-86.034)"><text
                     transform="matrix(1,0,0,-1,223.722,86.034)"
                     style="font-variant:normal;font-weight:normal;font-size:9.9626px;font-family:CMR10;-inkscape-font-specification:CMR10;writing-mode:lr-tb;fill:#000000;fill-opacity:1;fill-rule:nonzero;stroke:none"
                     id="text114"><tspan
                       x="0 5.5352206 9.4375706 12.205181 16.632561 24.377485 29.912706 33.815056 38.242435 43.777657 46.545269 50.972645 54.847103 57.614712 62.596012"
                       y="0"
                       sodipodi:role="line"
                       id="tspan112">priceprediction</tspan></text><g
                     id="g116"
                     transform="translate(223.722,86.034)" /></g></g><g
                 id="g118"
                 transform="translate(-204.539,-5.557)" /></g></g><path
             d="m 195.71504,-1.49442 v -66.53794 l -38.91098,0.0046"
             style="fill:none;stroke:#000000;stroke-width:0.59776;stroke-linecap:butt;stroke-linejoin:miter;stroke-miterlimit:10;stroke-dasharray:none;stroke-opacity:1"
             id="path120" /><g
             id="g122"
             transform="matrix(-0.99998,1e-4,-1e-4,-0.99998,156.80408,-68.02776)"><g
               id="g124"><path
                 d="m 0.91655,0 c -1.14568,0.22913 -2.29138,0.68741 -3.66621,1.4894 1.37483,-1.03113 1.37483,-1.94767 0,-2.9788 1.37483,0.80199 2.52053,1.26027 3.66621,1.4894 z"
                 style="fill:#000000;fill-opacity:1;fill-rule:nonzero;stroke:#000000;stroke-width:0.59776;stroke-linecap:butt;stroke-linejoin:round;stroke-miterlimit:10;stroke-dasharray:none;stroke-opacity:1"
                 id="path126" /></g></g><path
             d="m 126.20433,-55.27258 v 40.3085"
             style="fill:none;stroke:#000000;stroke-width:0.59776;stroke-linecap:butt;stroke-linejoin:miter;stroke-miterlimit:10;stroke-dasharray:none;stroke-opacity:1"
             id="path128" /><g
             id="g130"
             transform="rotate(90,70.584205,55.620125)"><g
               id="g132"><path
                 d="m 0.91655,0 c -1.14568,0.22913 -2.29138,0.68741 -3.66621,1.4894 1.37483,-1.03113 1.37483,-1.94767 0,-2.9788 1.37483,0.80199 2.52053,1.26027 3.66621,1.4894 z"
                 style="fill:#000000;fill-opacity:1;fill-rule:nonzero;stroke:#000000;stroke-width:0.59776;stroke-linecap:butt;stroke-linejoin:round;stroke-miterlimit:10;stroke-dasharray:none;stroke-opacity:1"
                 id="path134" /></g></g><path
             d="m 56.69362,-1.49442 v -66.53794 l 38.91096,0.0046"
             style="fill:none;stroke:#000000;stroke-width:0.59776;stroke-linecap:butt;stroke-linejoin:miter;stroke-miterlimit:10;stroke-dasharray:none;stroke-opacity:1"
             id="path136" /><g
             id="g138"
             transform="matrix(0.99998,1e-4,-1e-4,0.99998,95.60457,-68.02776)"><g
               id="g140"><path
                 d="m 0.91655,0 c -1.14568,0.22913 -2.29138,0.68741 -3.66621,1.4894 1.37483,-1.03113 1.37483,-1.94767 0,-2.9788 1.37483,0.80199 2.52053,1.26027 3.66621,1.4894 z"
                 style="fill:#000000;fill-opacity:1;fill-rule:nonzero;stroke:#000000;stroke-width:0.59776;stroke-linecap:butt;stroke-linejoin:round;stroke-miterlimit:10;stroke-dasharray:none;stroke-opacity:1"
                 id="path142" /></g></g></g></g></g></g></svg>
