<?xml version="1.0" encoding="UTF-8" standalone="no"?>
<!-- Created with Inkscape (http://www.inkscape.org/) -->

<svg
   version="1.1"
   id="svg2"
   xml:space="preserve"
   width="312.01599"
   height="145.49733"
   viewBox="0 0 312.01599 145.49733"
   sodipodi:docname="system_identification.pdf"
   xmlns:inkscape="http://www.inkscape.org/namespaces/inkscape"
   xmlns:sodipodi="http://sodipodi.sourceforge.net/DTD/sodipodi-0.dtd"
   xmlns="http://www.w3.org/2000/svg"
   xmlns:svg="http://www.w3.org/2000/svg"><defs
     id="defs6" /><sodipodi:namedview
     id="namedview4"
     pagecolor="#ffffff"
     bordercolor="#666666"
     borderopacity="1.0"
     inkscape:pageshadow="2"
     inkscape:pageopacity="0.0"
     inkscape:pagecheckerboard="0" /><g
     id="g8"
     inkscape:groupmode="layer"
     inkscape:label="system_identification"
     transform="matrix(1.3333333,0,0,-1.3333333,0,145.49733)"><g
       id="g10"
       transform="translate(3.046,80.477)"><g
         id="g12"><g
           id="g14"><g
             id="g16"><g
               id="g18"><path
                 d="M 44.24014,-12.45346 H 69.14708 V 12.45348 H 44.24014 Z"
                 style="fill:#b3b3ff;fill-opacity:1;fill-rule:nonzero;stroke:none"
                 id="path20" /></g><g
               id="g22"
               transform="translate(48.809,-4.054)"><g
                 id="g24"><g
                   id="g26"
                   transform="translate(-51.855,-76.423)"><text
                     transform="matrix(1,0,0,-1,51.855,76.423)"
                     style="font-variant:normal;font-weight:normal;font-size:9.9626px;font-family:CMMI10;-inkscape-font-specification:CMMI10;writing-mode:lr-tb;fill:#ffffff;fill-opacity:1;fill-rule:nonzero;stroke:none"
                     id="text30"><tspan
                       x="0"
                       y="0"
                       id="tspan28">z</tspan></text><text
                     transform="matrix(1,0,0,-1,56.926,80.038)"
                     style="font-variant:normal;font-weight:normal;font-size:6.9738px;font-family:CMSY7;-inkscape-font-specification:CMSY7;writing-mode:lr-tb;fill:#ffffff;fill-opacity:1;fill-rule:nonzero;stroke:none"
                     id="text34"><tspan
                       x="0"
                       y="0"
                       id="tspan32">−</tspan></text><text
                     transform="matrix(1,0,0,-1,63.153,80.038)"
                     style="font-variant:normal;font-weight:normal;font-size:6.9738px;font-family:CMR7;-inkscape-font-specification:CMR7;writing-mode:lr-tb;fill:#ffffff;fill-opacity:1;fill-rule:nonzero;stroke:none"
                     id="text38"><tspan
                       x="0"
                       y="0"
                       id="tspan36">1</tspan></text><g
                     id="g40"
                     transform="translate(51.855,76.423)" /></g></g><g
                 id="g42"
                 transform="translate(-48.809,4.054)" /></g></g><g
             id="g44"><g
               id="g46"><path
                 d="m 86.6082,0 c 0,0.82533 -0.66907,1.49442 -1.49442,1.49442 -0.82534,0 -1.49441,-0.66909 -1.49441,-1.49442 0,-0.82533 0.66907,-1.49442 1.49441,-1.49442 0.82535,0 1.49442,0.66909 1.49442,1.49442 z"
                 style="fill:#000000;fill-opacity:1;fill-rule:nonzero;stroke:none"
                 id="path48" /></g><g
               id="g50"
               transform="translate(85.112)"><g
                 id="g52" /><g
                 id="g54"
                 transform="translate(-85.112)" /></g></g><g
             id="g56"><g
               id="g58"><path
                 d="M 99.11108,-12.45346 H 127.6634 V 12.45348 H 99.11108 Z"
                 style="fill:#b3b3ff;fill-opacity:1;fill-rule:nonzero;stroke:none"
                 id="path60" /></g><g
               id="g62"
               transform="translate(102.43,-3.473)"><g
                 id="g64"><g
                   id="g66"
                   transform="translate(-105.476,-77.004)"><text
                     transform="matrix(1,0,0,-1,108.084,79.523)"
                     style="font-variant:normal;font-weight:normal;font-size:9.9626px;font-family:CMR10;-inkscape-font-specification:CMR10;writing-mode:lr-tb;fill:#ffffff;fill-opacity:1;fill-rule:nonzero;stroke:none"
                     id="text70"><tspan
                       x="0"
                       y="0"
                       id="tspan68">ˆ</tspan></text><text
                     transform="matrix(1,0,0,-1,105.476,77.004)"
                     style="font-variant:normal;font-weight:normal;font-size:9.9626px;font-family:CMMI10;-inkscape-font-specification:CMMI10;writing-mode:lr-tb;fill:#ffffff;fill-opacity:1;fill-rule:nonzero;stroke:none"
                     id="text74"><tspan
                       x="0"
                       y="0"
                       id="tspan72">H</tspan></text><text
                     transform="matrix(1,0,0,-1,114.567,77.004)"
                     style="font-variant:normal;font-weight:normal;font-size:9.9626px;font-family:CMR10;-inkscape-font-specification:CMR10;writing-mode:lr-tb;fill:#ffffff;fill-opacity:1;fill-rule:nonzero;stroke:none"
                     id="text78"><tspan
                       x="0"
                       y="0"
                       id="tspan76">(</tspan></text><text
                     transform="matrix(1,0,0,-1,118.441,77.004)"
                     style="font-variant:normal;font-weight:normal;font-size:9.9626px;font-family:CMMI10;-inkscape-font-specification:CMMI10;writing-mode:lr-tb;fill:#ffffff;fill-opacity:1;fill-rule:nonzero;stroke:none"
                     id="text82"><tspan
                       x="0"
                       y="0"
                       id="tspan80">z</tspan></text><text
                     transform="matrix(1,0,0,-1,123.513,77.004)"
                     style="font-variant:normal;font-weight:normal;font-size:9.9626px;font-family:CMR10;-inkscape-font-specification:CMR10;writing-mode:lr-tb;fill:#ffffff;fill-opacity:1;fill-rule:nonzero;stroke:none"
                     id="text86"><tspan
                       x="0"
                       y="0"
                       id="tspan84">)</tspan></text><g
                     id="g88"
                     transform="translate(105.476,77.004)" /></g></g><g
                 id="g90"
                 transform="translate(-102.43,3.473)" /></g></g><g
             id="g92"><path
               d="m 176.05855,0 c 0,3.3014 -2.67625,5.97766 -5.97766,5.97766 -3.30143,0 -5.97766,-2.67626 -5.97766,-5.97766 0,-3.3014 2.67623,-5.97766 5.97766,-5.97766 3.30141,0 5.97766,2.67626 5.97766,5.97766 z"
               style="fill:none;stroke:#000000;stroke-width:0.59776;stroke-linecap:butt;stroke-linejoin:miter;stroke-miterlimit:10;stroke-dasharray:none;stroke-opacity:1"
               id="path94" /><g
               id="g96"
               transform="translate(166.204,-2.49)"><g
                 id="g98"><g
                   id="g100"
                   transform="translate(-169.25,-77.987)"><text
                     transform="matrix(1,0,0,-1,169.25,77.987)"
                     style="font-variant:normal;font-weight:normal;font-size:9.9626px;font-family:CMR10;-inkscape-font-specification:CMR10;writing-mode:lr-tb;fill:#000000;fill-opacity:1;fill-rule:nonzero;stroke:none"
                     id="text104"><tspan
                       x="0"
                       y="0"
                       id="tspan102">+</tspan></text><g
                     id="g106"
                     transform="translate(169.25,77.987)" /></g></g><g
                 id="g108"
                 transform="translate(-166.204,2.49)" /></g></g><g
             id="g110"><g
               id="g112"><path
                 d="m 193.51965,0 c 0,0.82533 -0.66906,1.49442 -1.49441,1.49442 -0.82535,0 -1.49442,-0.66909 -1.49442,-1.49442 0,-0.82533 0.66907,-1.49442 1.49442,-1.49442 0.82535,0 1.49441,0.66909 1.49441,1.49442 z"
                 style="fill:#000000;fill-opacity:1;fill-rule:nonzero;stroke:none"
                 id="path114" /></g><g
               id="g116"
               transform="translate(192.022)"><g
                 id="g118" /><g
                 id="g120"
                 transform="translate(-192.022)" /></g></g><g
             id="g122"><g
               id="g124"><path
                 d="m 96.36784,-80.47841 h 34.0388 v 24.90694 h -34.0388 z"
                 style="fill:#b3b3ff;fill-opacity:1;fill-rule:nonzero;stroke:none"
                 id="path126" /></g><g
               id="g128"
               transform="translate(99.687,-70.514)"><g
                 id="g130"><g
                   id="g132"
                   transform="translate(-102.733,-9.963)"><text
                     transform="matrix(1,0,0,-1,102.733,9.963)"
                     style="font-variant:normal;font-weight:normal;font-size:9.9626px;font-family:CMR10;-inkscape-font-specification:CMR10;writing-mode:lr-tb;fill:#ffffff;fill-opacity:1;fill-rule:nonzero;stroke:none"
                     id="text136"><tspan
                       x="0 7.4719501 13.007171 17.98847 23.523691"
                       y="0"
                       sodipodi:role="line"
                       id="tspan134">Adapt</tspan></text><g
                     id="g138"
                     transform="translate(102.733,9.963)" /></g></g><g
                 id="g140"
                 transform="translate(-99.687,70.514)" /></g></g><path
             d="m 0,0 h 43.94125 m 25.50472,0 h 14.1734 m 2.98883,0 h 12.204 m 29.1501,0 h 33.63032"
             style="fill:none;stroke:#000000;stroke-width:0.59776;stroke-linecap:butt;stroke-linejoin:miter;stroke-miterlimit:10;stroke-dasharray:none;stroke-opacity:1"
             id="path142" /><g
             id="g144"
             transform="translate(161.59262)"><g
               id="g146"><path
                 d="m 0.91655,0 c -1.14568,0.22913 -2.29138,0.68741 -3.66621,1.4894 1.37483,-1.03113 1.37483,-1.94767 0,-2.9788 1.37483,0.80199 2.52053,1.26027 3.66621,1.4894 z"
                 style="fill:#000000;fill-opacity:1;fill-rule:nonzero;stroke:#000000;stroke-width:0.59776;stroke-linecap:butt;stroke-linejoin:round;stroke-miterlimit:10;stroke-dasharray:none;stroke-opacity:1"
                 id="path148" /></g></g><g
             id="g150"><g
               id="g152"
               transform="translate(0.275,5.557)"><g
                 id="g154"><g
                   id="g156"
                   transform="translate(-3.321,-86.034)"><text
                     transform="matrix(1,0,0,-1,3.321,86.034)"
                     style="font-variant:normal;font-weight:normal;font-size:9.9626px;font-family:CMMI10;-inkscape-font-specification:CMMI10;writing-mode:lr-tb;fill:#000000;fill-opacity:1;fill-rule:nonzero;stroke:none"
                     id="text160"><tspan
                       x="0"
                       y="0"
                       id="tspan158">p</tspan></text><text
                     transform="matrix(1,0,0,-1,8.333,84.54)"
                     style="font-variant:normal;font-weight:normal;font-size:6.9738px;font-family:CMMI7;-inkscape-font-specification:CMMI7;writing-mode:lr-tb;fill:#000000;fill-opacity:1;fill-rule:nonzero;stroke:none"
                     id="text164"><tspan
                       x="0"
                       y="0"
                       id="tspan162">n</tspan></text><g
                     id="g166"
                     transform="translate(3.321,86.034)" /></g></g><g
                 id="g168"
                 transform="translate(-0.275,-5.557)" /></g></g><g
             id="g170"><g
               id="g172"
               transform="translate(157.658,4.45)"><g
                 id="g174"><g
                   id="g176"
                   transform="translate(-160.704,-84.927)"><text
                     transform="matrix(1,0,0,-1,160.704,84.927)"
                     style="font-variant:normal;font-weight:normal;font-size:4.9813px;font-family:CMR5;-inkscape-font-specification:CMR5;writing-mode:lr-tb;fill:#000000;fill-opacity:1;fill-rule:nonzero;stroke:none"
                     id="text180"><tspan
                       x="0"
                       y="0"
                       id="tspan178">+</tspan></text><g
                     id="g182"
                     transform="translate(160.704,84.927)" /></g></g><g
                 id="g184"
                 transform="translate(-157.658,-4.45)" /></g></g><path
             d="m 176.35742,0 h 14.1734 m 2.98883,0 h 31.04312"
             style="fill:none;stroke:#000000;stroke-width:0.59776;stroke-linecap:butt;stroke-linejoin:miter;stroke-miterlimit:10;stroke-dasharray:none;stroke-opacity:1"
             id="path186" /><g
             id="g188"
             transform="translate(224.56277)"><g
               id="g190"><path
                 d="m 0.91655,0 c -1.14568,0.22913 -2.29138,0.68741 -3.66621,1.4894 1.37483,-1.03113 1.37483,-1.94767 0,-2.9788 1.37483,0.80199 2.52053,1.26027 3.66621,1.4894 z"
                 style="fill:#000000;fill-opacity:1;fill-rule:nonzero;stroke:#000000;stroke-width:0.59776;stroke-linecap:butt;stroke-linejoin:round;stroke-miterlimit:10;stroke-dasharray:none;stroke-opacity:1"
                 id="path192" /></g></g><g
             id="g194"><g
               id="g196"
               transform="translate(217.584,5.114)"><g
                 id="g198"><g
                   id="g200"
                   transform="translate(-220.63,-85.591)"><text
                     transform="matrix(1,0,0,-1,220.63,85.591)"
                     style="font-variant:normal;font-weight:normal;font-size:9.9626px;font-family:CMMI10;-inkscape-font-specification:CMMI10;writing-mode:lr-tb;fill:#000000;fill-opacity:1;fill-rule:nonzero;stroke:none"
                     id="text204"><tspan
                       x="0"
                       y="0"
                       id="tspan202">e</tspan></text><text
                     transform="matrix(1,0,0,-1,225.268,84.097)"
                     style="font-variant:normal;font-weight:normal;font-size:6.9738px;font-family:CMMI7;-inkscape-font-specification:CMMI7;writing-mode:lr-tb;fill:#000000;fill-opacity:1;fill-rule:nonzero;stroke:none"
                     id="text208"><tspan
                       x="0"
                       y="0"
                       id="tspan206">n</tspan></text><g
                     id="g210"
                     transform="translate(220.63,85.591)" /></g></g><g
                 id="g212"
                 transform="translate(-217.584,-5.114)" /></g></g><path
             d="M 85.11378,1.49442 V 28.3468 h 84.96711 V 8.48827"
             style="fill:none;stroke:#000000;stroke-width:0.59776;stroke-linecap:butt;stroke-linejoin:miter;stroke-miterlimit:10;stroke-dasharray:none;stroke-opacity:1"
             id="path214" /><g
             id="g216"
             transform="rotate(-90,89.28458,-80.79631)"><g
               id="g218"><path
                 d="m 0.91655,0 c -1.14568,0.22913 -2.29138,0.68741 -3.66621,1.4894 1.37483,-1.03113 1.37483,-1.94767 0,-2.9788 1.37483,0.80199 2.52053,1.26027 3.66621,1.4894 z"
                 style="fill:#000000;fill-opacity:1;fill-rule:nonzero;stroke:#000000;stroke-width:0.59776;stroke-linecap:butt;stroke-linejoin:round;stroke-miterlimit:10;stroke-dasharray:none;stroke-opacity:1"
                 id="path220" /></g></g><g
             id="g222"><g
               id="g224"
               transform="translate(173.698,6.554)"><g
                 id="g226"><g
                   id="g228"
                   transform="translate(-176.744,-87.031)"><text
                     transform="matrix(1,0,0,-1,176.744,87.031)"
                     style="font-variant:normal;font-weight:normal;font-size:8.9664px;font-family:CMR9;-inkscape-font-specification:CMR9;writing-mode:lr-tb;fill:#000000;fill-opacity:1;fill-rule:nonzero;stroke:none"
                     id="text232"><tspan
                       x="0"
                       y="0"
                       id="tspan230">-</tspan></text><g
                     id="g234"
                     transform="translate(176.744,87.031)" /></g></g><g
                 id="g236"
                 transform="translate(-173.698,-6.554)" /></g></g><path
             d="m 192.02524,-1.49442 v -66.53794 l -59.10804,0.0057"
             style="fill:none;stroke:#000000;stroke-width:0.59776;stroke-linecap:butt;stroke-linejoin:miter;stroke-miterlimit:10;stroke-dasharray:none;stroke-opacity:1"
             id="path238" /><g
             id="g240"
             transform="matrix(-0.99998,8e-5,-8e-5,-0.99998,132.91722,-68.02669)"><g
               id="g242"><path
                 d="m 0.91655,0 c -1.14568,0.22913 -2.29138,0.68741 -3.66621,1.4894 1.37483,-1.03113 1.37483,-1.94767 0,-2.9788 1.37483,0.80199 2.52053,1.26027 3.66621,1.4894 z"
                 style="fill:#000000;fill-opacity:1;fill-rule:nonzero;stroke:#000000;stroke-width:0.59776;stroke-linecap:butt;stroke-linejoin:round;stroke-miterlimit:10;stroke-dasharray:none;stroke-opacity:1"
                 id="path244" /></g></g><path
             d="m 113.38725,-55.27258 v 40.3085"
             style="fill:none;stroke:#000000;stroke-width:0.59776;stroke-linecap:butt;stroke-linejoin:miter;stroke-miterlimit:10;stroke-dasharray:none;stroke-opacity:1"
             id="path246" /><g
             id="g248"
             transform="rotate(90,64.175665,49.211585)"><g
               id="g250"><path
                 d="m 0.91655,0 c -1.14568,0.22913 -2.29138,0.68741 -3.66621,1.4894 1.37483,-1.03113 1.37483,-1.94767 0,-2.9788 1.37483,0.80199 2.52053,1.26027 3.66621,1.4894 z"
                 style="fill:#000000;fill-opacity:1;fill-rule:nonzero;stroke:#000000;stroke-width:0.59776;stroke-linecap:butt;stroke-linejoin:round;stroke-miterlimit:10;stroke-dasharray:none;stroke-opacity:1"
                 id="path252" /></g></g><path
             d="m 85.11378,-1.49442 v -66.53794 l 8.7435,0.0024"
             style="fill:none;stroke:#000000;stroke-width:0.59776;stroke-linecap:butt;stroke-linejoin:miter;stroke-miterlimit:10;stroke-dasharray:none;stroke-opacity:1"
             id="path254" /><g
             id="g256"
             transform="matrix(0.99998,2.6e-4,-2.6e-4,0.99998,93.85727,-68.02998)"><g
               id="g258"><path
                 d="m 0.91655,0 c -1.14568,0.22913 -2.29138,0.68741 -3.66621,1.4894 1.37483,-1.03113 1.37483,-1.94767 0,-2.9788 1.37483,0.80199 2.52053,1.26027 3.66621,1.4894 z"
                 style="fill:#000000;fill-opacity:1;fill-rule:nonzero;stroke:#000000;stroke-width:0.59776;stroke-linecap:butt;stroke-linejoin:round;stroke-miterlimit:10;stroke-dasharray:none;stroke-opacity:1"
                 id="path260" /></g></g></g></g></g></g></svg>
